<svg width="67" height="30" viewBox="0 0 67 30" fill="none" xmlns="http://www.w3.org/2000/svg">
<path d="M51.75 0H15C6.71573 0 0 6.71573 0 15C0 23.2843 6.71573 30 15 30H51.75C60.0343 30 66.75 23.2843 66.75 15C66.75 6.71573 60.0343 0 51.75 0Z" fill="#71B969"/>
<path d="M51.75 0H15C6.71573 0 0 6.71573 0 15C0 23.2843 6.71573 30 15 30H51.75C60.0343 30 66.75 23.2843 66.75 15C66.75 6.71573 60.0343 0 51.75 0Z" fill="#71B969"/>
<path d="M48.75 26.25C54.9632 26.25 60 21.2132 60 15C60 8.7868 54.9632 3.75 48.75 3.75C42.5368 3.75 37.5 8.7868 37.5 15C37.5 21.2132 42.5368 26.25 48.75 26.25Z" fill="white"/>
<path d="M18.8636 22.1978L13.0136 16.3478C12.6621 15.9963 12.6621 15.4265 13.0136 15.075L14.2864 13.8022C14.6378 13.4507 15.2077 13.4507 15.5592 13.8022L19.5 17.743L27.9408 9.30217C28.2923 8.95071 28.8622 8.95071 29.2136 9.30217L30.4864 10.575C30.8378 10.9264 30.8378 11.4963 30.4864 11.8478L20.1364 22.1978C19.7849 22.5493 19.215 22.5493 18.8636 22.1978Z" fill="white"/>
</svg>
