<svg width="67" height="30" viewBox="0 0 67 30" fill="none" xmlns="http://www.w3.org/2000/svg">
<g clip-path="url(#clip0)">
<path d="M51.75 0H15C6.71573 0 0 6.71573 0 15C0 23.2843 6.71573 30 15 30H51.75C60.0343 30 66.75 23.2843 66.75 15C66.75 6.71573 60.0343 0 51.75 0Z" fill="#71B969"/>
<path d="M48.25 26.5C54.4632 26.5 59.5 21.4632 59.5 15.25C59.5 9.0368 54.4632 4 48.25 4C42.0368 4 37 9.0368 37 15.25C37 21.4632 42.0368 26.5 48.25 26.5Z" fill="white"/>
<path d="M20.2524 24.4289C20.636 24.6828 21.0634 24.7619 21.5345 24.666C22.0057 24.5701 22.3683 24.3304 22.6221 23.9468L32.8219 8.5366C33.0758 8.15301 33.1549 7.72563 33.059 7.25445C32.9631 6.78327 32.7234 6.42074 32.3398 6.16685L30.7888 5.14024C30.4052 4.88635 29.9862 4.81286 29.5317 4.91976C29.0605 5.01562 28.6979 5.25534 28.444 5.63893L19.7676 18.7476C19.6793 18.881 19.5601 18.8981 19.41 18.7987L13.331 14.7751C12.9474 14.5212 12.52 14.4422 12.0488 14.5381C11.5776 14.6339 11.2151 14.8737 10.9612 15.2572L10.5141 15.9327C10.2602 16.3163 10.1812 16.7437 10.2771 17.2148C10.3729 17.686 10.6127 18.0486 10.9963 18.3024L20.2524 24.4289Z" fill="white"/>
</g>
<defs>
<clipPath id="clip0">
<rect width="67" height="30" fill="white"/>
</clipPath>
</defs>
</svg>
