<svg width="67" height="30" viewBox="0 0 67 30" fill="none" xmlns="http://www.w3.org/2000/svg">
<path d="M51.75 0H15C6.71573 0 0 6.71573 0 15C0 23.2843 6.71573 30 15 30H51.75C60.0343 30 66.75 23.2843 66.75 15C66.75 6.71573 60.0343 0 51.75 0Z" fill="#E42C17"/>
<path d="M22.5 26.25C28.7132 26.25 33.75 21.2132 33.75 15C33.75 8.7868 28.7132 3.75 22.5 3.75C16.2868 3.75 11.25 8.7868 11.25 15C11.25 21.2132 16.2868 26.25 22.5 26.25Z" fill="white"/>
<path d="M51.4118 15.3409L56.529 10.2237C57.157 9.59571 57.157 8.57759 56.529 7.94912L55.3918 6.81185C54.7638 6.18389 53.7457 6.18389 53.1172 6.81185L48 11.9291L42.8828 6.81185C42.2548 6.18389 41.2367 6.18389 40.6082 6.81185L39.471 7.94912C38.843 8.57707 38.843 9.5952 39.471 10.2237L44.5882 15.3409L39.471 20.4581C38.843 21.0861 38.843 22.1042 39.471 22.7326L40.6082 23.8699C41.2362 24.4979 42.2548 24.4979 42.8828 23.8699L48 18.7527L53.1172 23.8699C53.7452 24.4979 54.7638 24.4979 55.3918 23.8699L56.529 22.7326C57.157 22.1047 57.157 21.0866 56.529 20.4581L51.4118 15.3409Z" fill="white"/>
</svg>
